# xmcd CD database file
# Copyright (C) 1993-1998 Ti Kan
# 
# Track frame offsets:
#     150
#     22505
#     41450
#     59292
#     82862
#     106147
#     121302
#     134382
#     148327
#     166312
#     184837
# 
# Disc length: 2763 seconds
# 
# Revision: 1
# Processed by: cddbd v1.4b41PL1 Copyright (c) Steve Scherf et al.
# Submitted via: DiscPlay 4.0.4
# 
DISCID=870ac90b
DTITLE=Kory And The Fireflies - radiate
DYEAR=1900
DGENRE=
TTITLE0=sometimes...
TTITLE1=God...
TTITLE2=virginia...
TTITLE3=never let go...
TTITLE4=pray tell...
TTITLE5=platinum...
TTITLE6=carousel...
TTITLE7=with you...
TTITLE8=lester...
TTITLE9=beautiful dreamer...
TTITLE10=zoothisway...
EXTD=
EXTT0=
EXTT1=
EXTT2=
EXTT3=
EXTT4=
EXTT5=
EXTT6=
EXTT7=
EXTT8=
EXTT9=
EXTT10=
PLAYORDER=
